# xmcd
#
# Track frame offsets:
#	150
#	19851
#	37779
#	58733
#	72351
#	85584
#	100095
#	114610
#	129537
#	141963
#	154120
#	170770
#	184570
#	201050
#
# Disc length: 2904 seconds
#
# Revision: 1
# Processed by: cddbd v1.5.1PL0 Copyright (c) Steve Scherf et al.
# Submitted via: audiograbber 1.83.01
#
DISCID=ba0b560e
DTITLE=Trzecia zmiana - W drogê
DYEAR=1900
DGENRE=
TTITLE0=Bezpañska ballada o niczym
TTITLE1=Usta Twe Mario
TTITLE2=Alibi
TTITLE3=Wczoraj poczu³em
TTITLE4=Pipa blues
TTITLE5=Tango z ¿on¹ w zêbach
TTITLE6=Na wyrost
TTITLE7=Piosenka wewnêtrzna
TTITLE8=Taka gra tra la la
TTITLE9=Spojrzenie w lustro
TTITLE10=Piosenka przez okno
TTITLE11=Niegrzecznym dzieciom polskim na dobranoc
TTITLE12=W drogê
TTITLE13=Ballada na star¹ szafê i puste krzes³a
EXTD=
EXTT0=
EXTT1=
EXTT2=
EXTT3=
EXTT4=
EXTT5=
EXTT6=
EXTT7=
EXTT8=
EXTT9=
EXTT10=
EXTT11=
EXTT12=
EXTT13=
PLAYORDER=
